<svg width="18" height="18" viewBox="0 0 18 18" fill="none" xmlns="http://www.w3.org/2000/svg">
<path d="M17.2405 11.3737L15.643 9.77625C15.2998 9.44856 14.8435 9.26571 14.3689 9.26571C13.8944 9.26571 13.4381 9.44856 13.0949 9.77625L12.5324 10.3387C12.1507 10.719 11.6339 10.9325 11.0952 10.9325C10.5565 10.9325 10.0397 10.719 9.65799 10.3387C9.22486 9.90562 8.94924 9.61312 8.67361 9.32625C8.39799 9.03937 8.11111 8.73 7.66111 8.28562C7.28121 7.90493 7.06785 7.38907 7.06785 6.85125C7.06785 6.31343 7.28121 5.79757 7.66111 5.41688L8.22361 4.85438C8.39135 4.68791 8.52444 4.48986 8.6152 4.27166C8.70595 4.05346 8.75257 3.81944 8.75236 3.58312C8.75032 3.10629 8.56033 2.64951 8.22361 2.31188L6.62611 0.703125C6.17483 0.253774 5.56421 0.00103437 4.92736 0C4.61366 0.000462268 4.30314 0.0628055 4.01357 0.183459C3.724 0.304112 3.46108 0.480706 3.23986 0.703125L1.71549 2.21625C0.616998 3.31627 0 4.8073 0 6.36188C0 7.91646 0.616998 9.40748 1.71549 10.5075C2.59299 11.385 3.59424 12.375 4.58986 13.41C5.58549 14.445 6.56424 15.4125 7.43611 16.3125C8.5359 17.4093 10.0257 18.0252 11.5789 18.0252C13.1321 18.0252 14.622 17.4093 15.7218 16.3125L17.2405 14.7937C17.6871 14.3452 17.9396 13.7392 17.9436 13.1062C17.9492 12.785 17.8897 12.4659 17.7689 12.1682C17.6481 11.8705 17.4684 11.6003 17.2405 11.3737ZM16.3911 13.9219L16.228 14.0625L14.5968 12.4256C14.5424 12.3637 14.476 12.3136 14.4016 12.2785C14.3271 12.2433 14.2463 12.2237 14.164 12.2211C14.0817 12.2184 13.9997 12.2326 13.9231 12.2629C13.8466 12.2931 13.777 12.3388 13.7188 12.397C13.6606 12.4552 13.6149 12.5248 13.5846 12.6014C13.5544 12.6779 13.5401 12.7599 13.5428 12.8422C13.5455 12.9245 13.565 13.0054 13.6002 13.0798C13.6354 13.1543 13.6855 13.2207 13.7474 13.275L15.4068 14.9344L14.9005 15.4406C14.0254 16.3131 12.84 16.803 11.6043 16.803C10.3685 16.803 9.18313 16.3131 8.30799 15.4406C7.44174 14.5744 6.45736 13.5731 5.49549 12.5719C4.53361 11.5706 3.49299 10.5413 2.61549 9.66375C1.74302 8.7886 1.25309 7.60325 1.25309 6.3675C1.25309 5.13175 1.74302 3.9464 2.61549 3.07125L3.12174 2.565L4.72486 4.21875C4.83675 4.33437 4.98999 4.4008 5.15086 4.40344C5.31173 4.40608 5.46706 4.3447 5.58268 4.23281C5.69829 4.12092 5.76473 3.96769 5.76737 3.80682C5.77 3.64595 5.70863 3.49062 5.59674 3.375L3.90924 1.6875L4.07236 1.52438C4.18322 1.41173 4.31545 1.32236 4.4613 1.26151C4.60716 1.20065 4.7637 1.16954 4.92174 1.17C5.24063 1.17096 5.5461 1.29841 5.77111 1.52438L7.37424 3.15C7.48551 3.26227 7.54814 3.41381 7.54861 3.57187C7.54868 3.6502 7.53332 3.72777 7.5034 3.80016C7.47348 3.87255 7.42959 3.93833 7.37424 3.99375L6.81174 4.55625C6.20719 5.16254 5.86771 5.98381 5.86771 6.84C5.86771 7.69619 6.20719 8.51746 6.81174 9.12375C7.28424 9.5625 7.54299 9.83813 7.84674 10.125C8.15049 10.4119 8.40924 10.7213 8.85361 11.16C9.45991 11.7645 10.2812 12.104 11.1374 12.104C11.9936 12.104 12.8148 11.7645 13.4211 11.16L13.9836 10.5975C14.0985 10.4891 14.2504 10.4287 14.4083 10.4287C14.5662 10.4287 14.7182 10.4891 14.833 10.5975L16.4305 12.195C16.5429 12.306 16.6321 12.4383 16.6929 12.5841C16.7538 12.7299 16.785 12.8864 16.7849 13.0444C16.782 13.2088 16.7456 13.371 16.6779 13.5209C16.6102 13.6708 16.5126 13.8053 16.3911 13.9162V13.9219Z" fill="white"/>
</svg>
