<svg width="18" height="18" viewBox="0 0 18 18" fill="none" xmlns="http://www.w3.org/2000/svg">
<g clip-path="url(#clip0_6108_3176)">
<path d="M9 11.4C8.24 11.4 7.54 11.21 6.9 10.83C6.26 10.45 5.75 9.94 5.37 9.3C4.99 8.66 4.8 7.96 4.8 7.2C4.8 6.44 4.99 5.74 5.37 5.1C5.75 4.46 6.26 3.95 6.9 3.57C7.54 3.19 8.24 3 9 3C9.76 3 10.46 3.19 11.1 3.57C11.74 3.95 12.25 4.46 12.63 5.1C13.01 5.74 13.2 6.44 13.2 7.2C13.2 7.96 13.01 8.66 12.63 9.3C12.25 9.94 11.74 10.45 11.1 10.83C10.46 11.21 9.76 11.4 9 11.4ZM9 4.2C8.16 4.2 7.45 4.49 6.87 5.07C6.29 5.65 6 6.36 6 7.2C6 8.04 6.29 8.75 6.87 9.33C7.45 9.91 8.16 10.2 9 10.2C9.84 10.2 10.55 9.91 11.13 9.33C11.71 8.75 12 8.04 12 7.2C12 6.36 11.71 5.65 11.13 5.07C10.55 4.49 9.84 4.2 9 4.2ZM9 0C7.36 0 5.85 0.4 4.47 1.2C3.09 2 2 3.09 1.2 4.47C0.4 5.85 0 7.36 0 9C0 10.64 0.4 12.15 1.2 13.53C2 14.91 3.09 16 4.47 16.8C5.85 17.6 7.36 18 9 18C10.64 18 12.15 17.6 13.53 16.8C14.91 16 16 14.91 16.8 13.53C17.6 12.15 18 10.64 18 9C18 7.36 17.6 5.85 16.8 4.47C16 3.09 14.91 2 13.53 1.2C12.15 0.4 10.64 0 9 0ZM4.26 15.18C4.66 14.74 5.13 14.4 5.67 14.16C6.21 13.92 6.76 13.8 7.32 13.8H10.68C11.24 13.8 11.79 13.92 12.33 14.16C12.87 14.4 13.34 14.74 13.74 15.18C12.82 15.9 11.8 16.38 10.68 16.62C9.56 16.86 8.44 16.86 7.32 16.62C6.2 16.38 5.18 15.9 4.26 15.18ZM14.64 14.34C14.12 13.78 13.51 13.35 12.81 13.05C12.11 12.75 11.38 12.6 10.62 12.6H7.32C6.6 12.6 5.89 12.75 5.19 13.05C4.49 13.35 3.88 13.78 3.36 14.34C2.4 13.34 1.76 12.18 1.44 10.86C1.12 9.54 1.14 8.22 1.5 6.9C1.86 5.58 2.54 4.42 3.54 3.42C4.54 2.42 5.7 1.75 7.02 1.41C8.34 1.07 9.67 1.07 11.01 1.41C12.35 1.75 13.51 2.42 14.49 3.42C15.47 4.42 16.15 5.58 16.53 6.9C16.91 8.22 16.94 9.54 16.62 10.86C16.3 12.18 15.64 13.34 14.64 14.34Z" fill="white"/>
</g>
<defs>
<clipPath id="clip0_6108_3176">
<rect width="18" height="18" fill="white" transform="matrix(1 0 0 -1 0 18)"/>
</clipPath>
</defs>
</svg>
