<svg width="50" height="50" viewBox="0 0 50 50" fill="none" xmlns="http://www.w3.org/2000/svg">
<rect width="50" height="50" rx="25" fill="white"/>
<g clip-path="url(#clip0_6108_2620)">
<path d="M30.7933 17.8667L24.9267 13.76C24.3889 13.4178 23.7778 13.2467 23.0933 13.2467C22.4089 13.2467 21.7978 13.4178 21.26 13.76L15.3933 17.8667C14.9533 18.16 14.6111 18.5389 14.3667 19.0033C14.1222 19.4678 14 19.9689 14 20.5067V29.5267C14 30.4067 14.3178 31.1644 14.9533 31.8C15.5889 32.4355 16.3467 32.7533 17.2267 32.7533H28.96C29.84 32.7533 30.5978 32.4355 31.2333 31.8C31.8689 31.1644 32.1867 30.4067 32.1867 29.5267V20.5067C32.1867 19.9689 32.0644 19.4678 31.82 19.0033C31.5756 18.5389 31.2333 18.16 30.7933 17.8667ZM16.1267 18.8933L21.9933 14.86C22.2867 14.6155 22.6411 14.4933 23.0567 14.4933C23.4722 14.4933 23.8511 14.6155 24.1933 14.86L29.9867 18.8933C30.28 19.0889 30.5 19.3333 30.6467 19.6267C30.7933 19.92 30.8667 20.2133 30.8667 20.5067V28.2067H15.32V20.5067C15.32 20.1644 15.3933 19.8589 15.54 19.59C15.6867 19.3211 15.8822 19.0889 16.1267 18.8933ZM30.28 30.92C29.9378 31.3111 29.4978 31.5067 28.96 31.5067H17.2267C16.6889 31.5067 16.2367 31.3111 15.87 30.92C15.5033 30.5289 15.32 30.0644 15.32 29.5267H30.8667C30.8667 30.0644 30.6711 30.5289 30.28 30.92ZM22.5067 25.64C22.5067 25.8355 22.5678 25.9944 22.69 26.1167C22.8122 26.2389 22.9589 26.3 23.13 26.3C23.3011 26.3 23.4478 26.2389 23.57 26.1167C23.6922 25.9944 23.7533 25.8355 23.7533 25.64C23.7533 25.4444 23.6922 25.2855 23.57 25.1633C23.4478 25.0411 23.3011 24.98 23.13 24.98C22.9589 24.98 22.8122 25.0411 22.69 25.1633C22.5678 25.2855 22.5067 25.4444 22.5067 25.64ZM23.1667 22.4133C22.58 22.4133 22.03 22.56 21.5167 22.8533C21.0033 23.1467 20.6 23.5378 20.3067 24.0267L21.48 24.6867C21.6267 24.3444 21.8467 24.0878 22.14 23.9167C22.4333 23.7455 22.7633 23.66 23.13 23.66C23.4967 23.66 23.8267 23.7455 24.12 23.9167C24.4133 24.0878 24.6578 24.3444 24.8533 24.6867L25.9533 24.0267C25.66 23.5378 25.2567 23.1467 24.7433 22.8533C24.23 22.56 23.7044 22.4133 23.1667 22.4133ZM23.1667 21.0933C23.9489 21.0933 24.6944 21.3011 25.4033 21.7167C26.1122 22.1322 26.6622 22.6822 27.0533 23.3667L28.2267 22.7067C27.6889 21.8267 26.9678 21.1178 26.0633 20.58C25.1589 20.0422 24.1811 19.7733 23.13 19.7733C22.0789 19.7733 21.1011 20.0422 20.1967 20.58C19.2922 21.1178 18.5956 21.8267 18.1067 22.7067L19.2067 23.3667C19.5978 22.6822 20.1478 22.1322 20.8567 21.7167C21.5656 21.3011 22.3356 21.0933 23.1667 21.0933Z" fill="#181A20"/>
</g>
<defs>
<clipPath id="clip0_6108_2620">
<rect width="22" height="22" fill="white" transform="matrix(1 0 0 -1 14 34)"/>
</clipPath>
</defs>
</svg>
