<svg width="50" height="50" viewBox="0 0 50 50" fill="none" xmlns="http://www.w3.org/2000/svg">
<rect width="50" height="50" rx="25" fill="white"/>
<g clip-path="url(#clip0_6108_2615)">
<path d="M32.48 18.82L29.62 17.3533V15.1533C29.62 14.6155 29.4244 14.1633 29.0333 13.7967C28.6422 13.43 28.1778 13.2467 27.64 13.2467H19.8667C19.3289 13.2467 18.8644 13.43 18.4733 13.7967C18.0822 14.1633 17.8867 14.6155 17.8867 15.1533V17.3533L15.0267 18.82C14.7333 18.9667 14.4889 19.1989 14.2933 19.5167C14.0978 19.8344 14 20.1889 14 20.58V32.0933C14 32.2889 14.0611 32.4478 14.1833 32.57C14.3056 32.6922 14.4644 32.7533 14.66 32.7533H32.8467C33.0422 32.7533 33.2011 32.6922 33.3233 32.57C33.4456 32.4478 33.5067 32.2889 33.5067 32.0933V20.58C33.5067 20.1889 33.4089 19.8344 33.2133 19.5167C33.0178 19.1989 32.7733 18.9667 32.48 18.82ZM17.8867 31.5067H15.2467V20.58C15.2467 20.2867 15.3689 20.0667 15.6133 19.92L17.8867 18.82V31.5067ZM25.7333 31.5067H21.7733V28.8667H25.7333V31.5067ZM28.3 31.5067H26.98V28.2067C26.98 28.0111 26.9189 27.8522 26.7967 27.73C26.6744 27.6078 26.54 27.5467 26.3933 27.5467H21.1133C20.9667 27.5467 20.82 27.6078 20.6733 27.73C20.5267 27.8522 20.4533 28.0111 20.4533 28.2067V31.4333H19.2067V15.1533C19.2067 15.0067 19.2678 14.86 19.39 14.7133C19.5122 14.5667 19.6711 14.4933 19.8667 14.4933H27.64C27.8356 14.4933 27.9944 14.5667 28.1167 14.7133C28.2389 14.86 28.3 15.0067 28.3 15.1533V31.5067ZM32.26 31.5067H29.62V18.82L31.8933 19.92C32.1378 20.0667 32.26 20.2867 32.26 20.58V31.5067ZM24.4133 23.66H27.0533V24.98H24.4133V23.66ZM20.5267 23.66H23.0933V24.98H20.5267V23.66ZM24.4133 21.02H27.0533V22.34H24.4133V21.02ZM20.5267 21.02H23.0933V22.34H20.5267V21.02ZM24.4133 18.4533H27.0533V19.7H24.4133V18.4533ZM20.5267 18.4533H23.0933V19.7H20.5267V18.4533ZM24.4133 15.8133H27.0533V17.1333H24.4133V15.8133ZM20.5267 15.8133H23.0933V17.1333H20.5267V15.8133Z" fill="#181A20"/>
</g>
<defs>
<clipPath id="clip0_6108_2615">
<rect width="22" height="22" fill="white" transform="matrix(1 0 0 -1 14 34)"/>
</clipPath>
</defs>
</svg>
