<svg width="50" height="50" viewBox="0 0 50 50" fill="none" xmlns="http://www.w3.org/2000/svg">
<rect width="50" height="50" rx="25" fill="white"/>
<g clip-path="url(#clip0_6108_2610)">
<path d="M30.8667 34H17.6667C16.6889 34 15.8456 33.6456 15.1367 32.9367C14.4278 32.2278 14.0733 31.36 14.0733 30.3333L14 20.58C14 19.6511 14.2078 18.8078 14.6233 18.05C15.0389 17.2922 15.6378 16.6689 16.42 16.18L22.2867 12.5133C22.8733 12.1711 23.5211 12 24.23 12C24.9389 12 25.5867 12.1711 26.1733 12.5133L32.04 16.18C32.8222 16.62 33.4211 17.2311 33.8367 18.0133C34.2522 18.7956 34.46 19.6511 34.46 20.58L34.5333 30.3333C34.5333 31.36 34.1789 32.2278 33.47 32.9367C32.7611 33.6456 31.8933 34 30.8667 34ZM24.2667 13.4667C23.8267 13.4667 23.4356 13.5644 23.0933 13.76L17.1533 17.4267C16.6156 17.7689 16.2 18.2211 15.9067 18.7833C15.6133 19.3456 15.4667 19.9444 15.4667 20.58V30.3333C15.4667 30.92 15.6867 31.4333 16.1267 31.8733C16.5667 32.3133 17.08 32.5333 17.6667 32.5333H30.8667C31.5022 32.5333 32.0278 32.3133 32.4433 31.8733C32.8589 31.4333 33.0667 30.92 33.0667 30.3333V20.58C33.0667 19.8956 32.9078 19.2844 32.59 18.7467C32.2722 18.2089 31.8444 17.7689 31.3067 17.4267L25.3667 13.76C25.0244 13.5644 24.6578 13.4667 24.2667 13.4667ZM27.2 29.6H21.3333C21.1378 29.6 20.9789 29.5267 20.8567 29.38C20.7344 29.2333 20.6733 29.0622 20.6733 28.8667C20.6733 28.6711 20.7344 28.5 20.8567 28.3533C20.9789 28.2067 21.1378 28.1333 21.3333 28.1333H27.2C27.4933 28.0844 27.7256 28.1944 27.8967 28.4633C28.0678 28.7322 28.0678 29.0011 27.8967 29.27C27.7256 29.5389 27.4933 29.6489 27.2 29.6Z" fill="#181A20"/>
</g>
<defs>
<clipPath id="clip0_6108_2610">
<rect width="22" height="22" fill="white" transform="matrix(1 0 0 -1 14 34)"/>
</clipPath>
</defs>
</svg>
