<svg width="50" height="50" viewBox="0 0 50 50" fill="none" xmlns="http://www.w3.org/2000/svg">
<rect width="50" height="50" rx="25" fill="white"/>
<g clip-path="url(#clip0_6108_2625)">
<path d="M31.8933 17.7933L24.0467 13.32C23.8511 13.1733 23.6556 13.1733 23.46 13.32L15.6133 17.7933C15.1244 18.0867 14.7333 18.4778 14.44 18.9667C14.1467 19.4555 14 19.9933 14 20.58V29.5267C14 30.4067 14.3178 31.1644 14.9533 31.8C15.5889 32.4355 16.3467 32.7533 17.2267 32.7533H30.28C31.16 32.7533 31.9178 32.4355 32.5533 31.8C33.1889 31.1644 33.5067 30.4067 33.5067 29.5267V20.58C33.5067 19.9933 33.36 19.4555 33.0667 18.9667C32.7733 18.4778 32.3822 18.0867 31.8933 17.7933ZM24.4133 26.2267C24.4133 25.5422 24.67 24.9433 25.1833 24.43C25.6967 23.9167 26.2956 23.66 26.98 23.66C27.1756 23.66 27.3344 23.7211 27.4567 23.8433C27.5789 23.9655 27.64 24.1244 27.64 24.32C27.64 25.0533 27.3833 25.6644 26.87 26.1533C26.3567 26.6422 25.7578 26.8867 25.0733 26.8867H24.4133V26.2267ZM23.0933 26.8867H22.4333C21.7489 26.8867 21.15 26.6422 20.6367 26.1533C20.1233 25.6644 19.8667 25.0533 19.8667 24.32C19.8667 24.1244 19.9278 23.9655 20.05 23.8433C20.1722 23.7211 20.3311 23.66 20.5267 23.66C21.2111 23.66 21.81 23.9167 22.3233 24.43C22.8367 24.9433 23.0933 25.5422 23.0933 26.2267V26.8867ZM32.26 29.5267C32.26 30.0644 32.0644 30.5289 31.6733 30.92C31.2822 31.3111 30.8178 31.5067 30.28 31.5067H24.4133V28.2067H25.0733C26.1489 28.2067 27.0656 27.8278 27.8233 27.07C28.5811 26.3122 28.96 25.3955 28.96 24.32C28.96 23.7822 28.7644 23.3178 28.3733 22.9267C27.9822 22.5355 27.5178 22.34 26.98 22.34C25.9044 22.34 25 22.7311 24.2667 23.5133C24.0711 23.7089 23.9 23.9044 23.7533 24.1C23.3622 23.5622 22.8856 23.1344 22.3233 22.8167C21.7611 22.4989 21.1378 22.34 20.4533 22.34C19.9156 22.34 19.4633 22.5355 19.0967 22.9267C18.73 23.3178 18.5467 23.7822 18.5467 24.32C18.5467 25.3955 18.9256 26.3122 19.6833 27.07C20.4411 27.8278 21.3578 28.2067 22.4333 28.2067H23.0933V31.5067H17.2267C16.6889 31.5067 16.2244 31.3111 15.8333 30.92C15.4422 30.5289 15.2467 30.0644 15.2467 29.5267V20.58C15.2467 20.2378 15.3444 19.92 15.54 19.6267C15.7356 19.3333 15.98 19.0889 16.2733 18.8933L23.7533 14.64L31.2333 18.8933C31.5267 19.0889 31.7711 19.3333 31.9667 19.6267C32.1622 19.92 32.26 20.2378 32.26 20.58V29.5267Z" fill="#181A20"/>
</g>
<defs>
<clipPath id="clip0_6108_2625">
<rect width="22" height="22" fill="white" transform="matrix(1 0 0 -1 14 34)"/>
</clipPath>
</defs>
</svg>
