<svg width="50" height="50" viewBox="0 0 50 50" fill="none" xmlns="http://www.w3.org/2000/svg">
<rect width="50" height="50" rx="25" fill="white"/>
<g clip-path="url(#clip0_6108_2640)">
<path d="M34.2819 20.5067L26.8019 13.1C26.1175 12.3667 25.2619 12 24.2352 12C23.2086 12 22.353 12.3667 21.6686 13.1L14.1886 20.5067C14.0419 20.6533 13.9808 20.8244 14.0052 21.02C14.0297 21.2156 14.103 21.3867 14.2252 21.5333C14.3475 21.68 14.5063 21.7533 14.7019 21.7533C14.8975 21.7533 15.0686 21.68 15.2152 21.5333L22.6952 14.1267C23.1352 13.6867 23.6486 13.4667 24.2352 13.4667C24.8219 13.4667 25.3352 13.6867 25.7752 14.1267L33.2552 21.5333C33.4508 21.7778 33.6952 21.8633 33.9886 21.79C34.2819 21.7167 34.4652 21.5333 34.5386 21.24C34.6119 20.9467 34.5264 20.7022 34.2819 20.5067ZM24.2352 29.6H19.8352C19.2486 29.6 18.7352 29.38 18.2952 28.94C17.8552 28.5 17.6352 27.9867 17.6352 27.4V22.4867C17.6352 22.34 17.5619 22.1933 17.4152 22.0467C17.2686 21.9 17.0975 21.8267 16.9019 21.8267C16.7063 21.8267 16.5352 21.9 16.3886 22.0467C16.2419 22.1933 16.1686 22.34 16.1686 22.4867V27.4C16.1686 28.4267 16.523 29.2944 17.2319 30.0033C17.9408 30.7122 18.8086 31.0667 19.8352 31.0667H23.5019V33.2667C23.5019 33.4622 23.5752 33.6211 23.7219 33.7433C23.8686 33.8656 24.0397 33.9267 24.2352 33.9267C24.4308 33.9267 24.6019 33.8656 24.7486 33.7433C24.8952 33.6211 24.9686 33.4622 24.9686 33.2667V30.3333C24.9686 30.1378 24.8952 29.9667 24.7486 29.82C24.6019 29.6733 24.4308 29.6 24.2352 29.6ZM31.5686 21.7533C31.373 21.7533 31.2019 21.8267 31.0552 21.9733C30.9086 22.12 30.8352 22.2911 30.8352 22.4867V27.4C30.8352 27.9867 30.6152 28.5 30.1752 28.94C29.7352 29.38 29.2219 29.6 28.6352 29.6H27.1686C26.8752 29.5511 26.643 29.6611 26.4719 29.93C26.3008 30.1989 26.3008 30.4678 26.4719 30.7367C26.643 31.0056 26.8752 31.1156 27.1686 31.0667H28.6352C29.6619 31.0667 30.5297 30.7122 31.2386 30.0033C31.9475 29.2944 32.3019 28.4267 32.3019 27.4V22.4867C32.3019 22.2911 32.2286 22.12 32.0819 21.9733C31.9352 21.8267 31.7641 21.7533 31.5686 21.7533ZM27.9752 23C27.9752 21.9733 27.6086 21.0933 26.8752 20.36C26.1419 19.6267 25.2619 19.26 24.2352 19.26C23.2086 19.26 22.3286 19.6267 21.5952 20.36C20.8619 21.0933 20.4952 21.9733 20.4952 23C20.4952 24.0267 20.8619 24.9067 21.5952 25.64C22.3286 26.3733 23.2086 26.74 24.2352 26.74C25.2619 26.74 26.1419 26.3733 26.8752 25.64C27.6086 24.9067 27.9752 24.0267 27.9752 23ZM22.1086 23C22.1086 22.4133 22.3163 21.9122 22.7319 21.4967C23.1475 21.0811 23.6486 20.8733 24.2352 20.8733C24.8219 20.8733 25.323 21.0811 25.7386 21.4967C26.1541 21.9122 26.3619 22.4133 26.3619 23C26.3619 23.5867 26.1541 24.0878 25.7386 24.5033C25.323 24.9189 24.8219 25.1267 24.2352 25.1267C23.6486 25.1267 23.1475 24.9189 22.7319 24.5033C22.3163 24.0878 22.1086 23.5867 22.1086 23Z" fill="#181A20"/>
</g>
<defs>
<clipPath id="clip0_6108_2640">
<rect width="22" height="22" fill="white" transform="matrix(1 0 0 -1 14 34)"/>
</clipPath>
</defs>
</svg>
