<svg width="50" height="50" viewBox="0 0 50 50" fill="none" xmlns="http://www.w3.org/2000/svg">
<rect width="50" height="50" rx="25" fill="white"/>
<g clip-path="url(#clip0_6108_2630)">
<path d="M32.5533 14.2C31.9178 13.5644 31.16 13.2467 30.28 13.2467H17.2267C16.3467 13.2467 15.5889 13.5644 14.9533 14.2C14.3178 14.8356 14 15.5933 14 16.4733V30.7733C14 31.2133 14.11 31.5922 14.33 31.91C14.55 32.2278 14.8433 32.46 15.21 32.6067C15.5767 32.7533 15.9556 32.79 16.3467 32.7167C16.7378 32.6433 17.0556 32.46 17.3 32.1667L19.8667 29.6H30.28C31.16 29.6 31.9178 29.2822 32.5533 28.6467C33.1889 28.0111 33.5067 27.2533 33.5067 26.3733V16.4733C33.5067 15.5933 33.1889 14.8356 32.5533 14.2ZM32.26 26.3733C32.26 26.9111 32.0644 27.3633 31.6733 27.73C31.2822 28.0967 30.8178 28.28 30.28 28.28H19.5733C19.4267 28.28 19.28 28.3533 19.1333 28.5L16.42 31.2867C16.2244 31.4822 15.9922 31.5189 15.7233 31.3967C15.4544 31.2744 15.32 31.0911 15.32 30.8467V16.4733C15.32 15.9355 15.5033 15.4833 15.87 15.1167C16.2367 14.75 16.6889 14.5667 17.2267 14.5667H30.28C30.8178 14.5667 31.2822 14.75 31.6733 15.1167C32.0644 15.4833 32.26 15.9355 32.26 16.4733V26.3733ZM23.3867 16.62L18.18 19.8467L18.84 20.9467L19.7933 20.36V23.66C19.7933 24.1978 19.9889 24.6622 20.38 25.0533C20.7711 25.4444 21.2356 25.64 21.7733 25.64H25.66C26.1978 25.64 26.6622 25.4444 27.0533 25.0533C27.4444 24.6622 27.64 24.1978 27.64 23.66V20.36L28.5933 20.9467L29.3267 19.8467L24.12 16.62C23.8756 16.4733 23.6311 16.4733 23.3867 16.62ZM26.3933 23.66C26.3444 23.8555 26.2589 24.0144 26.1367 24.1367C26.0144 24.2589 25.88 24.32 25.7333 24.32H21.7733C21.6267 24.32 21.48 24.2589 21.3333 24.1367C21.1867 24.0144 21.1133 23.8555 21.1133 23.66V19.5533L23.7533 17.94L26.3933 19.5533V23.66Z" fill="#181A20"/>
</g>
<defs>
<clipPath id="clip0_6108_2630">
<rect width="22" height="22" fill="white" transform="matrix(1 0 0 -1 14 34)"/>
</clipPath>
</defs>
</svg>
