<svg width="50" height="50" viewBox="0 0 50 50" fill="none" xmlns="http://www.w3.org/2000/svg">
<rect width="50" height="50" rx="25" fill="white"/>
<g clip-path="url(#clip0_6108_2635)">
<path d="M31.6 28.8667V20.36C31.6 19.0889 31.27 17.9033 30.61 16.8033C29.95 15.7033 29.07 14.8356 27.97 14.2C26.87 13.5644 25.6844 13.2467 24.4133 13.2467H23.0933C21.8222 13.2467 20.6367 13.5644 19.5367 14.2C18.4367 14.8356 17.5567 15.7033 16.8967 16.8033C16.2367 17.9033 15.9067 19.0889 15.9067 20.36V28.8667H14V30.1867H18.5467V32.7533H19.8667V30.1867H27.64V32.7533H28.96V30.1867H33.5067V28.8667H31.6ZM30.28 20.36V21.68H24.4133V14.4933C25.4889 14.4933 26.4667 14.7622 27.3467 15.3C28.2267 15.8378 28.9356 16.5589 29.4733 17.4633C30.0111 18.3678 30.28 19.3333 30.28 20.36ZM17.2267 20.36C17.2267 19.3333 17.4956 18.3678 18.0333 17.4633C18.5711 16.5589 19.28 15.8378 20.16 15.3C21.04 14.7622 22.0178 14.4933 23.0933 14.4933V21.68H17.2267V20.36ZM17.2267 23H23.0933V28.8667H17.2267V23ZM24.4133 28.8667V23H30.28V28.8667H24.4133Z" fill="#181A20"/>
</g>
<defs>
<clipPath id="clip0_6108_2635">
<rect width="22" height="22" fill="white" transform="matrix(1 0 0 -1 14 34)"/>
</clipPath>
</defs>
</svg>
